<svg width="0" height="0" class="hidden">
  <symbol fill="none" xmlns="http://www.w3.org/2000/svg" viewBox="0 0 146 40" id="freysoft">
    <path d="M48.561 15.4867V17.3604H54.8058V20.7434H48.561V26.2397H44.658V11.9072H55.2379V15.4915H48.561V15.4867Z" fill="white"/>
    <path d="M68.1784 26.2348H64.1592C63.9826 25.8514 63.9036 25.4106 63.885 24.7876L63.8246 23.1584C63.7642 21.5292 63.0254 21.2848 61.9335 21.2848H59.903V26.2348H56V11.9023H62.8303C66.6172 11.9023 68.0018 13.9149 68.0018 16.1479C68.0018 17.5376 67.3188 18.8266 65.8365 19.5118C67.4582 20.1347 67.6905 21.3423 67.7509 22.8709L67.8299 24.7828C67.8485 25.3866 67.9832 25.8898 68.1784 26.2348ZM62.2448 18.3426C63.3972 18.3426 63.9826 17.7388 63.9826 16.6942C63.9826 15.6687 63.3972 15.041 62.2448 15.041H59.903V18.3426H62.2448Z" fill="white"/>
    <path d="M73.006 15.4866V17.3794H79.446V20.7193H73.006V22.6505H80.0733V26.2348H69.103V11.9023H80.0733V15.4866H73.006Z" fill="white"/>
    <path d="M94.7698 11.9023L89.6773 20.7193V26.2348H85.7743V20.7193L80.6028 11.9023H84.9937L85.8904 13.5124C86.5363 14.6816 87.1775 15.846 87.8048 17.0152C88.3902 15.8269 89.0361 14.6002 89.6401 13.4932L90.4997 11.9023H94.7698Z" fill="white"/>
    <path d="M93.8591 21.5242H97.6088C97.646 23.2157 98.7193 23.4984 100.225 23.4984C101.554 23.4984 102.176 23.0144 102.176 22.2094C102.176 21.3852 101.688 21.1025 99.9878 20.8197L98.8959 20.6377C95.7549 20.1153 94.0729 18.6059 94.0729 16.0087C94.0729 13.5313 95.871 11.5811 99.7741 11.5811C103.445 11.5811 105.55 13.172 105.708 16.3106H102.037C101.976 15.1845 101.354 14.6383 99.8298 14.6383C98.5985 14.6383 98.0549 15.0791 98.0549 15.8266C98.0549 16.694 98.7007 16.9958 100.085 17.2354L101.238 17.4367C104.634 18.0213 106.195 19.3486 106.195 21.9075C106.195 25.1085 103.696 26.5556 100.067 26.5556C95.871 26.5556 93.8591 24.4616 93.8591 21.5242Z" fill="white"/>
    <path d="M106.298 19.0658C106.298 14.4944 109.267 11.5762 113.597 11.5762C117.909 11.5762 120.897 14.4944 120.897 19.0658C120.897 23.6373 117.909 26.5555 113.597 26.5555C109.267 26.5555 106.298 23.6373 106.298 19.0658ZM116.836 19.0658C116.836 16.5309 115.549 15.0598 113.597 15.0598C111.646 15.0598 110.359 16.5309 110.359 19.0658C110.359 21.6199 111.646 23.0718 113.597 23.0718C115.549 23.0718 116.836 21.6247 116.836 19.0658Z" fill="white"/>
    <path d="M125.706 15.4867V17.3604H131.951V20.7434H125.706V26.2397H121.803V11.9072H132.383V15.4915H125.706V15.4867Z" fill="white"/>
    <path d="M145.003 15.4866H140.905V26.2348H137.001V15.4866H132.903V11.9023H145.003V15.4866Z" fill="white"/>
    <path d="M0.00268555 18.97L18.7924 0.107071L37.5821 18.97L18.7924 37.8329L0.00268555 18.97Z" fill="#18E8A4"/>
    <path d="M32.3601 18.908L29.7869 16.3157L20.6836 25.4912V20.3111L27.2182 13.728L24.6496 11.1402L20.6836 15.1356V7.9021H17.0497V15.1356L13.0838 11.1402L10.5105 13.728L17.0497 20.3111V40.0001H20.6836V30.6713L32.3601 18.908Z" fill="#020213"/>
  </symbol>
  <symbol xmlns="http://www.w3.org/2000/svg" viewBox="0 0 24 24" id="Contact">
    <path d="M20 15.4998C18.75 15.4998 17.55 15.2998 16.43 14.9298C16.08 14.8198 15.69 14.8998 15.41 15.1698L13.21 17.3698C10.38 15.9298 8.06 13.6198 6.62 10.7898L8.82 8.57976C9.1 8.30976 9.18 7.91976 9.07 7.56976C8.7 6.44976 8.5 5.24976 8.5 3.99976C8.5 3.44976 8.05 2.99976 7.5 2.99976H4C3.45 2.99976 3 3.44976 3 3.99976C3 13.3898 10.61 20.9998 20 20.9998C20.55 20.9998 21 20.5498 21 19.9998V16.4998C21 15.9498 20.55 15.4998 20 15.4998ZM12 2.99976V12.9998L15 9.99976H21V2.99976H12Z"></path>
  </symbol>
  <symbol viewBox="0 0 1079 175" fill="none" xmlns="http://www.w3.org/2000/svg" id="arrow-mobile">
    <path d="M6 161H183C196.255 161 207 150.255 207 137V30C207 16.7452 217.745 6 231 6H233C246.255 6 257 16.7452 257 30V137C257 150.255 267.745 161 281 161H467C480.255 161 491 150.255 491 137V30C491 16.7452 501.745 6 515 6H517C530.255 6 541 16.7452 541 30V137C541 150.255 551.745 161 565 161H768C781.255 161 792 150.255 792 137V30C792 16.7452 802.745 6 816 6H818C831.255 6 842 16.7452 842 30V137C842 150.255 852.745 161 866 161H1073" stroke="black" stroke-opacity="0.1" stroke-width="12" stroke-linecap="round" stroke-linejoin="round"/>
    <path d="M87 149L99 161L87 173" stroke="#484A4A" stroke-width="4" stroke-linecap="round" stroke-linejoin="round"/>
    <path d="M52 161H99" stroke="#484A4A" stroke-width="4" stroke-linecap="round" stroke-linejoin="round"/>
    <path d="M195 94L207 82L219 94" stroke="#484A4A" stroke-width="4" stroke-linecap="round" stroke-linejoin="round"/>
    <path d="M207 122V82" stroke="#484A4A" stroke-width="4" stroke-linecap="round" stroke-linejoin="round"/>
    <path d="M480 94L492 82L504 94" stroke="#484A4A" stroke-width="4" stroke-linecap="round" stroke-linejoin="round"/>
    <path d="M492 122V82" stroke="#484A4A" stroke-width="4" stroke-linecap="round" stroke-linejoin="round"/>
    <path d="M780 94L792 82L804 94" stroke="#484A4A" stroke-width="4" stroke-linecap="round" stroke-linejoin="round"/>
    <path d="M792 122V82" stroke="#484A4A" stroke-width="4" stroke-linecap="round" stroke-linejoin="round"/>
    <path d="M245 86L257 98L269 86" stroke="#484A4A" stroke-width="4" stroke-linecap="round" stroke-linejoin="round"/>
    <path d="M257 58V98" stroke="#484A4A" stroke-width="4" stroke-linecap="round" stroke-linejoin="round"/>
    <path d="M530 86L542 98L554 86" stroke="#484A4A" stroke-width="4" stroke-linecap="round" stroke-linejoin="round"/>
    <path d="M542 58V98" stroke="#484A4A" stroke-width="4" stroke-linecap="round" stroke-linejoin="round"/>
    <path d="M830 86L842 98L854 86" stroke="#484A4A" stroke-width="4" stroke-linecap="round" stroke-linejoin="round"/>
    <path d="M842 58V98" stroke="#484A4A" stroke-width="4" stroke-linecap="round" stroke-linejoin="round"/>
    <path d="M401 149L413 161L401 173" stroke="#484A4A" stroke-width="4" stroke-linecap="round" stroke-linejoin="round"/>
    <path d="M366 161H413" stroke="#484A4A" stroke-width="4" stroke-linecap="round" stroke-linejoin="round"/>
    <path d="M678 149L690 161L678 173" stroke="#484A4A" stroke-width="4" stroke-linecap="round" stroke-linejoin="round"/>
    <path d="M643 161H690" stroke="#484A4A" stroke-width="4" stroke-linecap="round" stroke-linejoin="round"/>
    <path d="M974 149L986 161L974 173" stroke="#484A4A" stroke-width="4" stroke-linecap="round" stroke-linejoin="round"/>
    <path d="M939 161H986" stroke="#484A4A" stroke-width="4" stroke-linecap="round" stroke-linejoin="round"/>
  </symbol>
  <symbol fill="none" xmlns="http://www.w3.org/2000/svg" viewBox="0 0 128 128" id="International clients">
    <path d="M29.7849 14.8162C54.3786 14.8162 71.2675 2.07666 83.1182 2.07666C94.9689 2.07666 119.858 8.88911 119.858 63.4064C119.858 117.924 86.3751 125.924 73.3404 125.924C12.3022 125.927 -13.7707 14.8162 29.7849 14.8162Z" fill="#EFEFEF"></path>
    <path d="M95.6545 27.0771L98.1687 24.563L103.197 29.5913L100.683 32.1055L95.6545 27.0771Z" fill="#A4AFC1"></path>
    <path d="M110.109 41.5342L112.623 39.02L117.651 44.0483L115.137 46.5625L110.109 41.5342Z" fill="#A4AFC1"></path>
    <path d="M109.483 29.5903L114.511 24.562L117.025 27.0762L111.997 32.1045L109.483 29.5903Z" fill="#A4AFC1"></path>
    <path d="M56.8889 89.7778C75.0529 89.7778 89.7778 75.0529 89.7778 56.8889C89.7778 38.7249 75.0529 24 56.8889 24C38.7249 24 24 38.7249 24 56.8889C24 75.0529 38.7249 89.7778 56.8889 89.7778Z" fill="#F3F3F1"></path>
    <path d="M88.8888 82.6667C91.3434 82.6667 93.3332 80.6769 93.3332 78.2223C93.3332 75.7677 91.3434 73.7778 88.8888 73.7778C86.4342 73.7778 84.4443 75.7677 84.4443 78.2223C84.4443 80.6769 86.4342 82.6667 88.8888 82.6667Z" fill="#F3F3F1"></path>
    <path d="M54.72 37.7243V40.8176C54.72 46.2576 50.9156 50.9154 45.6178 52.0532C43.5556 52.4798 41.7778 53.6176 40.4978 55.1465C39.2178 56.7109 38.5067 58.6309 38.4711 60.7643C38.4356 63.1109 37.4756 65.2087 35.9467 66.7376C34.3822 68.2665 32.2844 69.2265 29.9022 69.2265H26.4178C24.8533 65.4221 24 61.2621 24 56.8887C24 41.6709 34.3467 28.8354 48.3911 25.1021C52.3378 28.0532 54.72 32.7465 54.72 37.7243Z" fill="#2FDF84"></path>
    <path d="M88.2489 46.8979L80.7822 47.8223C80.32 47.8579 79.8933 47.8934 79.4666 47.8934C75.7689 47.8934 72.32 45.9379 70.3644 42.7379C67.3422 37.689 66.5955 31.609 68.2311 25.9912C77.7244 29.4757 85.1555 37.2268 88.2489 46.8979Z" fill="#2FDF84"></path>
    <path d="M97.7779 89.9999V85.5554C97.7779 81.6266 94.5956 78.4443 90.6667 78.4443H81.7779C77.849 78.4443 74.6667 81.6266 74.6667 85.5554V89.9999H97.7779Z" fill="#2FDF84"></path>
    <path d="M89.7778 65.1109C89.7778 64.4354 89.9521 63.8132 90.2223 63.2407C89.5112 61.7296 88.0001 60.6665 86.2223 60.6665C83.7689 60.6665 81.7778 62.6576 81.7778 65.1109C81.7778 67.5643 83.7689 69.5554 86.2223 69.5554C88.0001 69.5554 89.5112 68.4923 90.2223 66.9812C89.9521 66.4087 89.7778 65.7865 89.7778 65.1109Z" fill="#00B871"></path>
    <path d="M89.7779 78.4443H81.7779C77.849 78.4443 74.6667 81.6266 74.6667 85.5554V89.9999H82.6667V85.5554C82.6667 81.6266 85.849 78.4443 89.7779 78.4443Z" fill="#00B871"></path>
    <path d="M86.2223 72.2222C82.3005 72.2222 79.1112 69.0329 79.1112 65.1111C79.1112 61.1893 82.3005 58 86.2223 58C90.1441 58 93.3334 61.1893 93.3334 65.1111C93.3334 69.0329 90.1441 72.2222 86.2223 72.2222ZM86.2223 63.3333C85.241 63.3333 84.4445 64.1298 84.4445 65.1111C84.4445 66.0924 85.241 66.8889 86.2223 66.8889C87.2037 66.8889 88.0001 66.0924 88.0001 65.1111C88.0001 64.1298 87.2037 63.3333 86.2223 63.3333Z" fill="black"></path>
    <path d="M100.444 90.0001H95.1111V85.5556C95.1111 83.1058 93.1164 81.1112 90.6667 81.1112H81.7778C79.328 81.1112 77.3333 83.1058 77.3333 85.5556V90.0001H72V85.5556C72 80.1618 76.384 75.7778 81.7778 75.7778H90.6667C96.0604 75.7778 100.444 80.1618 100.444 85.5556V90.0001Z" fill="black"></path>
    <path d="M32 56.8889C32 40.0818 44.6151 26.2436 60.8889 24.2667C59.5733 24.1067 58.2471 24 56.8889 24C38.7236 24 24 38.7236 24 56.8889C24 75.0542 38.7236 89.7778 56.8889 89.7778C58.2471 89.7778 59.5733 89.6711 60.8889 89.5111C44.6151 87.5342 32 73.696 32 56.8889Z" fill="#D5DBE1"></path>
    <path d="M32 56.8887C32 43.8221 39.6373 32.5332 50.6809 27.2318C49.9911 26.4567 49.2338 25.7314 48.3911 25.1021C34.3467 28.8354 24 41.6709 24 56.8887C24 61.2621 24.8533 65.4221 26.4178 69.2265H29.9022C31.4204 69.2265 32.8036 68.8034 34.0267 68.1243C32.7324 64.6185 32 60.8496 32 56.8887Z" fill="#00B871"></path>
    <path d="M78.3644 42.7379C76.0142 38.8125 75.0613 34.2685 75.5093 29.7992C73.2622 28.249 70.8337 26.9477 68.2311 25.9912C66.5955 31.609 67.3422 37.689 70.3644 42.7379C72.32 45.9379 75.7689 47.8934 79.4666 47.8934C79.8933 47.8934 80.32 47.8579 80.7822 47.8223L84.3697 47.3779C81.9164 46.617 79.7546 45.0134 78.3644 42.7379Z" fill="#00B871"></path>
    <path d="M29.9022 71.8933H26.4177V66.56H29.9022C33.1626 66.56 35.7546 63.9964 35.8044 60.7218C35.8933 55.1929 39.7084 50.5564 45.0737 49.44C49.8737 48.4124 51.4275 44.4302 51.9288 42.1476C53.1342 36.6329 50.9724 30.3609 46.7946 27.2356L49.9875 22.9653C55.8542 27.3529 58.7982 35.712 57.1377 43.2889C55.8222 49.3013 51.8293 53.4471 46.1759 54.6596C43.7795 55.1573 41.1946 57.2907 41.1377 60.8071C41.0453 66.9191 36.0035 71.8933 29.9022 71.8933Z" fill="black"></path>
    <path d="M79.7831 50.5207C75.4169 50.5207 71.7583 48.7749 69.0418 45.4327C64.9671 40.4158 63.6125 32.3021 65.6711 25.2407L70.7876 26.7341C69.248 32.0141 70.2578 38.4674 73.184 42.0656C75.0365 44.3554 77.5254 45.3865 80.5725 45.1589L87.9183 44.2487L88.5725 49.5394L81.1023 50.4638C80.6614 50.5029 80.2205 50.5207 79.7831 50.5207Z" fill="black"></path>
    <path d="M56.8888 92.4446C37.2835 92.4446 21.3333 76.4944 21.3333 56.8891C21.3333 37.2837 37.2835 21.3335 56.8888 21.3335C74.4355 21.3335 89.1946 33.8775 91.9821 51.1682L86.7199 52.0144C84.3484 37.3264 71.8008 26.6668 56.8888 26.6668C40.2239 26.6668 26.6666 40.2242 26.6666 56.8891C26.6666 73.5539 40.2239 87.1113 56.8888 87.1113C59.1715 87.1113 61.3617 86.8659 63.5839 86.3575L64.7715 91.5593C62.1866 92.1459 59.5377 92.4446 56.8888 92.4446Z" fill="black"></path>
  </symbol>
  <symbol fill="none" xmlns="http://www.w3.org/2000/svg" viewBox="0 0 128 128" id="Fav work proc">
    <path d="M29.7849 113.184C54.3786 113.184 71.2675 125.923 83.1182 125.923C94.9689 125.923 119.858 119.111 119.858 64.5936C119.858 10.0763 86.3751 2.07275 73.3404 2.07275C12.3022 2.07275 -13.7707 113.184 29.7849 113.184Z" fill="#EFEFEF"></path>
    <path d="M26.2222 15.1113H29.7777V22.2224H26.2222V15.1113Z" fill="#A4AFC1"></path>
    <path d="M14.6665 25.7778H21.7776V29.3334H14.6665V25.7778Z" fill="#A4AFC1"></path>
    <path d="M24 63.1113V93.3336H33.7778L40.8889 67.0722C40.8889 67.0722 35.7049 63.1113 24 63.1113Z" fill="#2FDF84"></path>
    <path d="M95.1112 81.7779C90.4961 81.7779 85.1379 84.0107 80.0001 85.5859V84.0534C80.0001 80.6756 77.6179 77.7601 74.3112 77.0845L40.0712 70.0801L34.7734 89.3512C41.5645 92.5512 59.0579 100.445 67.5557 100.445C78.2223 100.445 104 86.2223 104 86.2223C104 86.2223 102.222 81.7779 95.1112 81.7779Z" fill="#2FDF84"></path>
    <path d="M104 64.4444V34.2222H94.2224L87.1113 60.4835C87.1113 60.4835 92.2953 64.4444 104 64.4444Z" fill="#F3F3F1"></path>
    <path d="M32.8889 45.778C37.504 45.778 42.8622 43.5451 48 41.97V43.5024C48 46.8802 50.3822 49.7958 53.6889 50.4713L87.9289 57.4758L93.2267 38.2047C86.4356 35.0047 68.9422 27.1113 60.4444 27.1113C49.7778 27.1113 24 41.3336 24 41.3336C24 41.3336 25.7778 45.778 32.8889 45.778Z" fill="#F3F3F1"></path>
    <path d="M24 63.1113V93.3336H32V63.8224C29.7742 63.4064 27.1396 63.1113 24 63.1113Z" fill="#00B871"></path>
    <path d="M88 84.0534V85.5858C91.6196 84.4765 95.3422 83.0543 98.8409 82.3041C97.792 81.9983 96.5902 81.7778 95.1111 81.7778C92.8533 81.7778 90.4142 82.3147 87.9111 83.0472C87.9609 83.3778 88 83.712 88 84.0534Z" fill="#00B871"></path>
    <path d="M42.7734 89.3512L47.6445 71.6303L40.0712 70.0801L34.7734 89.3512C41.5645 92.5512 59.0579 100.445 67.5557 100.445C68.6721 100.445 69.9841 100.26 71.385 99.9787C62.2437 98.2614 48.5903 92.0925 42.7734 89.3512Z" fill="#00B871"></path>
    <path d="M95.1113 60.4835L102.222 34.2222H94.2224L87.1113 60.4835C87.1113 60.4835 92.2953 64.4444 104 64.4444V63.7333C97.9238 62.5955 95.1113 60.4835 95.1113 60.4835Z" fill="#D5DBE1"></path>
    <path d="M32 41.3336C32 41.3336 52.6329 29.9629 64.6151 27.5771C63.0827 27.2891 61.664 27.1113 60.4444 27.1113C49.7778 27.1113 24 41.3336 24 41.3336C24 41.3336 25.7778 45.778 32.8889 45.778C34.2542 45.778 35.6871 45.5682 37.1591 45.2518C33.1627 44.0927 32 41.3336 32 41.3336Z" fill="#D5DBE1"></path>
    <path d="M61.6889 50.4711C58.3822 49.7955 56 46.8799 56 43.5022V41.9697C53.376 42.7733 50.6986 43.7475 48.0889 44.5084C48.5084 47.4417 50.7164 49.8631 53.6889 50.4711L87.9289 57.4755L88.3555 55.9253L61.6889 50.4711Z" fill="#D5DBE1"></path>
    <path d="M104 67.5556C91.5379 67.5556 85.7317 63.2285 85.4935 63.0436C84.633 62.3858 84.2526 61.2729 84.537 60.2276L91.6481 33.9662C91.9646 32.8071 93.017 32 94.2223 32H104C105.472 32 106.667 33.1947 106.667 34.6667V64.8889C106.667 66.3609 105.472 67.5556 104 67.5556ZM90.2223 59.6302C92.0819 60.5084 95.7192 61.8169 101.333 62.144V37.3333H96.2632L90.2223 59.6302Z" fill="black"></path>
    <path d="M32.889 48.8887C24.0748 48.8887 21.625 43.0184 21.5254 42.766C21.0241 41.5145 21.5326 40.0922 22.713 39.4416C23.7868 38.8478 49.2197 24.8887 60.4446 24.8887C69.0099 24.8887 85.3726 31.9998 94.3646 36.2344L92.089 41.0593C77.4792 34.1722 65.9414 30.222 60.4446 30.222C53.2339 30.222 36.8641 38.0087 28.2881 42.5029C29.2766 43.0682 30.7486 43.5553 32.889 43.5553C36.0108 43.5553 39.8686 42.2718 43.6019 41.0238C47.737 39.6442 52.0143 38.222 56.0001 38.222C63.4952 38.222 73.3832 41.7882 73.7992 41.9376L71.9788 46.9509C71.8863 46.9153 62.5494 43.5553 56.0001 43.5553C52.8783 43.5553 49.0206 44.8389 45.2872 46.0869C41.1521 47.4664 36.8783 48.8887 32.889 48.8887Z" fill="black"></path>
    <path d="M87.3957 60.5298L53.1557 53.5253C48.6259 52.5973 45.3335 48.5689 45.3335 43.9467V42.3467H50.6668V43.9467C50.6668 46.048 52.1637 47.8791 54.2224 48.3058L88.4624 55.3102L87.3957 60.5298Z" fill="black"></path>
    <path d="M33.7779 95.9999H24.0002C22.5282 95.9999 21.3335 94.8052 21.3335 93.3332V63.111C21.3335 61.639 22.5282 60.4443 24.0002 60.4443C36.4624 60.4443 42.2686 64.7714 42.5068 64.9563C43.3673 65.6141 43.7477 66.727 43.4633 67.7723L36.3522 94.0337C36.0357 95.1928 34.9833 95.9999 33.7779 95.9999ZM26.6668 90.6666H31.7371L37.7744 68.3697C35.9148 67.4914 32.2775 66.183 26.6633 65.8559V90.6666H26.6668Z" fill="black"></path>
    <path d="M67.5555 103.111C58.9902 103.111 42.6275 96.0001 33.6355 91.7654L35.9111 86.9405C50.5244 93.8312 62.0586 97.7814 67.5555 97.7814C74.7662 97.7814 91.1359 89.9948 99.7119 85.5005C98.7235 84.9352 97.2515 84.4481 95.1111 84.4481C91.9893 84.4481 88.1315 85.7316 84.3982 86.9796C80.2631 88.3592 75.9857 89.7814 71.9999 89.7814C64.5048 89.7814 54.6168 86.2152 54.2008 86.0659L56.0213 81.0525C56.1137 81.0881 65.4506 84.4481 71.9999 84.4481C75.1217 84.4481 78.9795 83.1645 82.7128 81.9165C86.8479 80.537 91.1253 79.1147 95.1111 79.1147C103.925 79.1147 106.375 84.985 106.475 85.2374C106.976 86.489 106.467 87.9112 105.287 88.5619C104.213 89.1521 78.7804 103.111 67.5555 103.111Z" fill="black"></path>
    <path d="M82.6668 85.6533H77.3335V84.0533C77.3335 81.952 75.8366 80.1209 73.7779 79.6942L64.1033 77.7031L65.1806 72.48L74.8517 74.4711C79.3779 75.3991 82.6704 79.4275 82.6704 84.0498V85.6533H82.6668Z" fill="black"></path>
    <path d="M39.5674 72.7209L40.6348 67.4908L58.2731 71.0903L57.2057 76.3204L39.5674 72.7209Z" fill="black"></path>
  </symbol>
  <symbol xmlns="http://www.w3.org/2000/svg" viewBox="0 0 24 24" id="menu">
    <path fill-rule="evenodd" clip-rule="evenodd" d="M4 4H20V6H4V4ZM4 11H20V13H4V11ZM20 18H4V20H20V18Z"></path>
  </symbol>
  <symbol fill="none" xmlns="http://www.w3.org/2000/svg" viewBox="0 0 128 128" id="You will get">
    <path d="M29.7849 14.816C54.3786 14.816 71.2675 2.07642 83.1182 2.07642C94.9689 2.07642 119.858 8.88886 119.858 63.4062C119.858 117.924 86.3751 125.924 73.3404 125.924C12.3022 125.927 -13.7707 14.816 29.7849 14.816Z" fill="#EFEFEF"></path>
    <path d="M95.6545 12.8584L98.1687 10.3442L103.197 15.3726L100.683 17.8867L95.6545 12.8584Z" fill="#A4AFC1"></path>
    <path d="M110.109 27.3154L112.623 24.8013L117.652 29.8296L115.137 32.3437L110.109 27.3154Z" fill="#A4AFC1"></path>
    <path d="M109.48 15.374L114.509 10.3457L117.023 12.8599L111.995 17.8882L109.48 15.374Z" fill="#A4AFC1"></path>
    <path d="M75.5556 89.7776H24V77.3332C24 71.4416 28.7751 66.6665 34.6667 66.6665H64.8889C70.7804 66.6665 75.5556 71.4416 75.5556 77.3332V89.7776Z" fill="#F3F3F1"></path>
    <path d="M49.7778 54.2223C57.1416 54.2223 63.1111 48.2528 63.1111 40.889C63.1111 33.5252 57.1416 27.5557 49.7778 27.5557C42.414 27.5557 36.4445 33.5252 36.4445 40.889C36.4445 48.2528 42.414 54.2223 49.7778 54.2223Z" fill="#F3F3F1"></path>
    <path d="M63.0755 40.1779C57.0311 41.1023 53.3333 34.6668 53.3333 34.6668C47.0755 40.4979 39.1466 40.3557 36.48 40.1068C36.8711 33.1023 42.6666 27.5557 49.7778 27.5557C56.8889 27.5557 62.72 33.1379 63.0755 40.1779Z" fill="#2FDF84"></path>
    <path d="M83.5555 104C94.8467 104 104 94.8467 104 83.5555C104 72.2644 94.8467 63.1111 83.5555 63.1111C72.2644 63.1111 63.1111 72.2644 63.1111 83.5555C63.1111 94.8467 72.2644 104 83.5555 104Z" fill="#2FDF84"></path>
    <path d="M71.1111 83.5555C71.1111 73.6355 78.1795 65.3689 87.5555 63.5093C86.2613 63.2533 84.9244 63.1111 83.5555 63.1111C72.2631 63.1111 63.1111 72.2631 63.1111 83.5555C63.1111 94.848 72.2631 104 83.5555 104C84.9244 104 86.2613 103.861 87.5555 103.602C78.1795 101.742 71.1111 93.4755 71.1111 83.5555Z" fill="#00B871"></path>
    <path d="M42.6667 66.6665H34.6667C28.7751 66.6665 24 71.4416 24 77.3332V89.7776H32V77.3332C32 71.4416 36.7751 66.6665 42.6667 66.6665Z" fill="#D5DBE1"></path>
    <path d="M44.4445 40.889C44.4445 34.9299 48.3805 29.9414 53.7778 28.2348C52.5085 27.833 51.1822 27.5557 49.7778 27.5557C42.4142 27.5557 36.4445 33.5254 36.4445 40.889C36.4445 48.2526 42.4142 54.2223 49.7778 54.2223C51.1822 54.2223 52.5085 53.945 53.7778 53.5432C48.3805 51.8366 44.4445 46.8481 44.4445 40.889Z" fill="#D5DBE1"></path>
    <path d="M53.7706 28.2277C52.5049 27.8259 51.1786 27.5557 49.7778 27.5557C42.6666 27.5557 36.8711 33.1023 36.48 40.1068C37.9555 40.2454 41.0631 40.3094 44.5902 39.385C45.1804 34.0943 48.8391 29.7886 53.7706 28.2277Z" fill="#00B871"></path>
    <path d="M61.8595 42.937C57.7315 42.937 54.6737 40.4694 52.8746 38.4748C46.1653 43.2321 38.5742 42.9797 36.2311 42.7628L36.7289 37.4543C38.7946 37.6499 45.9804 37.881 51.5164 32.7183C52.1102 32.1637 52.9209 31.9112 53.7315 32.0321C54.5351 32.153 55.2391 32.633 55.648 33.3406C55.6693 33.3761 58.5351 38.1441 62.6773 37.5432L63.4844 42.8126C62.9226 42.8979 62.3822 42.937 61.8595 42.937Z" fill="black"></path>
    <path d="M49.7778 56.8889C40.9565 56.8889 33.7778 49.7102 33.7778 40.8889C33.7778 32.0676 40.9565 24.8889 49.7778 24.8889C58.5992 24.8889 65.7778 32.0676 65.7778 40.8889C65.7778 49.7102 58.5992 56.8889 49.7778 56.8889ZM49.7778 30.2222C43.8969 30.2222 39.1112 35.008 39.1112 40.8889C39.1112 46.7698 43.8969 51.5556 49.7778 51.5556C55.6587 51.5556 60.4445 46.7698 60.4445 40.8889C60.4445 35.008 55.6587 30.2222 49.7778 30.2222Z" fill="black"></path>
    <path d="M83.5556 106.667C70.8125 106.667 60.4445 96.2986 60.4445 83.5554C60.4445 70.8123 70.8125 60.4443 83.5556 60.4443C96.2987 60.4443 106.667 70.8123 106.667 83.5554C106.667 96.2986 96.2987 106.667 83.5556 106.667ZM83.5556 65.7777C73.7529 65.7777 65.7778 73.7528 65.7778 83.5554C65.7778 93.3581 73.7529 101.333 83.5556 101.333C93.3582 101.333 101.333 93.3581 101.333 83.5554C101.333 73.7528 93.3582 65.7777 83.5556 65.7777Z" fill="black"></path>
    <path d="M80 92.4444C79.2924 92.4444 78.6133 92.1635 78.1155 91.6622L71.0044 84.5511L74.7768 80.7786L79.872 85.8737L90.4391 73.7991L94.4533 77.3084L82.0088 91.5306C81.5217 92.0853 80.8284 92.416 80.0888 92.4409C80.0604 92.4444 80.0284 92.4444 80 92.4444Z" fill="black"></path>
    <path d="M53.3333 92.4444H23.9999C22.5279 92.4444 21.3333 91.2498 21.3333 89.7778V77.3333C21.3333 69.9804 27.3137 64 34.6666 64H56.9599V69.3333H34.6666C30.2541 69.3333 26.6666 72.9209 26.6666 77.3333V87.1111H53.3333V92.4444Z" fill="black"></path>
  </symbol>
  <symbol xmlns="http://www.w3.org/2000/svg" viewBox="0 0 24 24" id="facebook_ic">
    <path d="M9.69579 13.2481C9.62379 13.2481 8.03979 13.2481 7.3198 13.2481C6.9358 13.2481 6.8158 13.1041 6.8158 12.7441C6.8158 11.7841 6.8158 10.8001 6.8158 9.84007C6.8158 9.45607 6.9598 9.33607 7.3198 9.33607H9.69579C9.69579 9.26407 9.69579 7.87207 9.69579 7.22407C9.69579 6.26407 9.86379 5.35207 10.3438 4.51207C10.8478 3.64807 11.5678 3.07207 12.4798 2.73607C13.0798 2.52007 13.6798 2.42407 14.3278 2.42407H16.6798C17.0158 2.42407 17.1598 2.56807 17.1598 2.90407V5.64007C17.1598 5.97607 17.0158 6.12007 16.6798 6.12007C16.0318 6.12007 15.3838 6.12007 14.7358 6.14407C14.0878 6.14407 13.7518 6.45607 13.7518 7.12807C13.7278 7.84807 13.7518 8.54407 13.7518 9.28807H16.5358C16.9198 9.28807 17.0638 9.43207 17.0638 9.81607V12.7201C17.0638 13.1041 16.9438 13.2241 16.5358 13.2241C15.6718 13.2241 13.8238 13.2241 13.7518 13.2241V21.0481C13.7518 21.4561 13.6318 21.6001 13.1998 21.6001C12.1918 21.6001 11.2078 21.6001 10.1998 21.6001C9.83979 21.6001 9.69579 21.4561 9.69579 21.0961C9.69579 18.5761 9.69579 13.3201 9.69579 13.2481Z"></path>
  </symbol>
  <symbol xmlns="http://www.w3.org/2000/svg" viewBox="0 0 24 24" id="linkedin_ic">
    <path d="M21.5998 21.5997V14.5677C21.5998 11.1117 20.8558 8.47168 16.8238 8.47168C14.8798 8.47168 13.5838 9.52768 13.0558 10.5357H13.0078V8.78368H9.19183V21.5997H13.1758V15.2397C13.1758 13.5597 13.4878 11.9517 15.5518 11.9517C17.5918 11.9517 17.6158 13.8477 17.6158 15.3357V21.5757H21.5998V21.5997Z"></path>
    <path d="M2.7121 8.78345H6.6961V21.5994H2.7121V8.78345Z"></path>
    <path d="M4.70384 2.3999C3.43184 2.3999 2.39984 3.4319 2.39984 4.7039C2.39984 5.9759 3.43184 7.0319 4.70384 7.0319C5.97584 7.0319 7.00784 5.9759 7.00784 4.7039C7.00784 3.4319 5.97584 2.3999 4.70384 2.3999Z"></path>
  </symbol>
  <symbol fill="none" xmlns="http://www.w3.org/2000/svg" viewBox="0 0 128 128" id="You will not get icon">
    <path d="M113.184 98.215C113.184 73.6212 125.924 56.7323 125.924 44.8816C125.924 33.031 119.111 8.14209 64.5938 8.14209C10.0764 8.14209 2.07288 41.6248 2.07288 54.6594C2.07288 115.698 113.184 141.771 113.184 98.215Z" fill="#EFEFEF"></path>
    <path d="M94.2222 46.2223C91.2818 46.2223 88.8889 43.8294 88.8889 40.889C88.8889 37.9486 91.2818 35.5557 94.2222 35.5557C97.1627 35.5557 99.5556 37.9486 99.5556 40.889C99.5556 43.8294 97.1627 46.2223 94.2222 46.2223ZM94.2222 39.1112C93.2445 39.1112 92.4445 39.9077 92.4445 40.889C92.4445 41.8703 93.2445 42.6668 94.2222 42.6668C95.2 42.6668 96 41.8703 96 40.889C96 39.9077 95.2 39.1112 94.2222 39.1112Z" fill="#A4AFC1"></path>
    <path d="M75.5556 89.7779H24V77.3334C24 71.4419 28.7751 66.6667 34.6667 66.6667H64.8889C70.7804 66.6667 75.5556 71.4419 75.5556 77.3334V89.7779Z" fill="#F3F3F1"></path>
    <path d="M49.7778 54.2223C57.1416 54.2223 63.1111 48.2528 63.1111 40.889C63.1111 33.5252 57.1416 27.5557 49.7778 27.5557C42.414 27.5557 36.4445 33.5252 36.4445 40.889C36.4445 48.2528 42.414 54.2223 49.7778 54.2223Z" fill="#F3F3F1"></path>
    <path d="M63.0755 40.1779C57.0311 41.1023 53.3333 34.6668 53.3333 34.6668C47.0755 40.4979 39.1466 40.3557 36.48 40.1068C36.8711 33.1023 42.6666 27.5557 49.7778 27.5557C56.8889 27.5557 62.72 33.1379 63.0755 40.1779Z" fill="#E8184A"></path>
    <path d="M83.5555 104C94.8467 104 104 94.8467 104 83.5555C104 72.2644 94.8467 63.1111 83.5555 63.1111C72.2644 63.1111 63.1111 72.2644 63.1111 83.5555C63.1111 94.8467 72.2644 104 83.5555 104Z" fill="#E8184A"></path>
    <path d="M71.1111 83.5555C71.1111 73.6355 78.1795 65.3689 87.5555 63.5093C86.2613 63.2533 84.9244 63.1111 83.5555 63.1111C72.2631 63.1111 63.1111 72.2631 63.1111 83.5555C63.1111 94.848 72.2631 104 83.5555 104C84.9244 104 86.2613 103.861 87.5555 103.602C78.1795 101.742 71.1111 93.4755 71.1111 83.5555Z" fill="black" fill-opacity="0.2"></path>
    <path d="M42.6667 66.6667H34.6667C28.7751 66.6667 24 71.4419 24 77.3334V89.7779H32V77.3334C32 71.4419 36.7751 66.6667 42.6667 66.6667Z" fill="#D5DBE1"></path>
    <path d="M44.4445 40.889C44.4445 34.9299 48.3805 29.9414 53.7778 28.2348C52.5085 27.833 51.1822 27.5557 49.7778 27.5557C42.4142 27.5557 36.4445 33.5254 36.4445 40.889C36.4445 48.2526 42.4142 54.2223 49.7778 54.2223C51.1822 54.2223 52.5085 53.945 53.7778 53.5432C48.3805 51.8366 44.4445 46.8481 44.4445 40.889Z" fill="#D5DBE1"></path>
    <path d="M53.7706 28.2277C52.5049 27.8259 51.1786 27.5557 49.7778 27.5557C42.6666 27.5557 36.8711 33.1023 36.48 40.1068C37.9555 40.2454 41.0631 40.3094 44.5902 39.385C45.1804 34.0943 48.8391 29.7886 53.7706 28.2277Z" fill="#BA133B"></path>
    <path d="M61.8595 42.937C57.7315 42.937 54.6738 40.4694 52.8747 38.4748C46.1724 43.2286 38.5955 42.9903 36.2275 42.7628L36.7289 37.4543C38.8053 37.6499 45.9804 37.8774 51.5129 32.7183C52.1102 32.1637 52.9244 31.9112 53.728 32.0321C54.5351 32.153 55.2391 32.633 55.6444 33.3406C55.6658 33.3761 58.5315 38.1441 62.6738 37.5432L63.4809 42.8126C62.9226 42.8979 62.3822 42.937 61.8595 42.937Z" fill="black"></path>
    <path d="M49.7778 56.8889C40.9564 56.8889 33.7778 49.7102 33.7778 40.8889C33.7778 32.0676 40.9564 24.8889 49.7778 24.8889C58.5991 24.8889 65.7778 32.0676 65.7778 40.8889C65.7778 49.7102 58.5991 56.8889 49.7778 56.8889ZM49.7778 30.2222C43.8969 30.2222 39.1111 35.008 39.1111 40.8889C39.1111 46.7698 43.8969 51.5556 49.7778 51.5556C55.6587 51.5556 60.4444 46.7698 60.4444 40.8889C60.4444 35.008 55.6587 30.2222 49.7778 30.2222Z" fill="black"></path>
    <path d="M83.5556 106.667C70.8125 106.667 60.4445 96.2986 60.4445 83.5554C60.4445 70.8123 70.8125 60.4443 83.5556 60.4443C96.2987 60.4443 106.667 70.8123 106.667 83.5554C106.667 96.2986 96.2987 106.667 83.5556 106.667ZM83.5556 65.7777C73.7529 65.7777 65.7778 73.7528 65.7778 83.5554C65.7778 93.3581 73.7529 101.333 83.5556 101.333C93.3582 101.333 101.333 93.3581 101.333 83.5554C101.333 73.7528 93.3582 65.7777 83.5556 65.7777Z" fill="black"></path>
    <path d="M75.4308 87.8916L87.8759 75.4465L91.6471 79.2178L79.202 91.6628L75.4308 87.8916Z" fill="black"></path>
    <path d="M75.4308 79.2195L79.202 75.4482L91.6471 87.8933L87.8759 91.6646L75.4308 79.2195Z" fill="black"></path>
    <path d="M53.3333 92.4444H24C22.528 92.4444 21.3333 91.2498 21.3333 89.7778V77.3333C21.3333 69.9804 27.3173 64 34.6666 64H56.96V69.3333H34.6666C30.2578 69.3333 26.6666 72.9209 26.6666 77.3333V87.1111H53.3333V92.4444Z" fill="black"></path>
  </symbol>
  <symbol viewBox="0 0 51 51" xmlns="http://www.w3.org/2000/svg" id="Subtract">
    <path d="M30.9151 2.35499C27.8069 -0.785056 22.7674 -0.785056 19.6591 2.35499L2.77509 19.4117C-0.333176 22.5517 -0.333177 27.6427 2.77509 30.7828L19.6591 47.8394C22.7674 50.9795 27.8069 50.9795 30.9151 47.8394L38.0551 40.6264L32.9092 35.4955C30.9115 36.8795 28.6849 37.5714 26.2296 37.5714C24.6336 37.5714 23.1073 37.2617 21.6509 36.6423C20.1944 36.0229 18.9388 35.1858 17.8841 34.1311C16.8295 33.0764 15.9924 31.8209 15.373 30.3644C14.7536 28.9079 14.4438 27.3817 14.4438 25.7857C14.4438 24.1897 14.7536 22.6635 15.373 21.207C15.9924 19.7506 16.8294 18.495 17.8841 17.4403C18.9388 16.3856 20.1944 15.5486 21.6509 14.9291C23.1073 14.3097 24.6336 14 26.2296 14C27.8255 14 29.3518 14.3097 30.8082 14.9291C32.2647 15.5485 33.5203 16.3856 34.575 17.4403C35.6297 18.495 36.4667 19.7506 37.0861 21.207C37.7056 22.6635 38.0153 24.1897 38.0153 25.7857C38.0153 28.2411 37.3233 30.4676 35.9394 32.4654L41.0624 37.5884L47.7991 30.7828C50.9074 27.6427 50.9074 22.5517 47.7991 19.4117L30.9151 2.35499ZM33.7296 25.7857C33.7296 27.8504 32.993 29.6194 31.5198 31.0926C30.0577 32.5547 28.2943 33.2857 26.2296 33.2857C24.1649 33.2857 22.3987 32.5519 20.9311 31.0843C19.4634 29.6166 18.7296 27.8504 18.7296 25.7857C18.7296 23.721 19.4634 21.9548 20.9311 20.4872C22.3987 19.0195 24.1649 18.2857 26.2296 18.2857C28.2943 18.2857 30.0605 19.0195 31.5282 20.4872C32.9958 21.9548 33.7296 23.721 33.7296 25.7857Z" />
  </symbol>
  <symbol fill="none" xmlns="http://www.w3.org/2000/svg" viewBox="0 0 128 128" id="Young motivated team">
    <path d="M14.816 29.7846C14.816 54.3784 2.07642 71.2673 2.07642 83.118C2.07642 94.9686 8.88886 119.857 63.4062 119.857C117.924 119.857 125.924 86.3748 125.924 73.3402C125.927 12.3019 14.816 -13.7709 14.816 29.7846Z" fill="#EFEFEF"></path>
    <path d="M113.778 19.5553C110.837 19.5553 108.444 17.1624 108.444 14.222C108.444 11.2816 110.837 8.88867 113.778 8.88867C116.718 8.88867 119.111 11.2816 119.111 14.222C119.111 17.1624 116.718 19.5553 113.778 19.5553ZM113.778 12.4442C112.796 12.4442 112 13.2407 112 14.222C112 15.2033 112.796 15.9998 113.778 15.9998C114.759 15.9998 115.555 15.2033 115.555 14.222C115.555 13.2407 114.759 12.4442 113.778 12.4442Z" fill="#A4AFC1"></path>
    <path d="M92.4445 79.1111C94.8991 79.1111 96.8889 77.1212 96.8889 74.6666C96.8889 72.212 94.8991 70.2222 92.4445 70.2222C89.9898 70.2222 88 72.212 88 74.6666C88 77.1212 89.9898 79.1111 92.4445 79.1111Z" fill="#F3F3F1"></path>
    <path d="M35.5555 79.1111C38.0101 79.1111 40 77.1212 40 74.6666C40 72.212 38.0101 70.2222 35.5555 70.2222C33.1009 70.2222 31.1111 72.212 31.1111 74.6666C31.1111 77.1212 33.1009 79.1111 35.5555 79.1111Z" fill="#F3F3F1"></path>
    <path d="M64 80.8887C68.4183 80.8887 72 77.307 72 72.8887C72 68.4704 68.4183 64.8887 64 64.8887C59.5817 64.8887 56 68.4704 56 72.8887C56 77.307 59.5817 80.8887 64 80.8887Z" fill="#F3F3F1"></path>
    <path d="M80.8889 106.667V98.6668C80.8889 94.7379 77.7066 91.5557 73.7778 91.5557H54.2222C50.2933 91.5557 47.1111 94.7379 47.1111 98.6668V106.667H80.8889Z" fill="#F3F3F1"></path>
    <path d="M47.1111 99.5556V95.1111C47.1111 91.1822 43.9289 88 40 88H31.1111C27.1822 88 24 91.1822 24 95.1111V99.5556H47.1111Z" fill="#F3F3F1"></path>
    <path d="M104 99.5556V95.1111C104 91.1822 100.818 88 96.8889 88H88C84.0711 88 80.8889 91.1822 80.8889 95.1111V99.5556H104Z" fill="#F3F3F1"></path>
    <path d="M86.2223 61.3333C90.1334 61.3333 93.3334 58.1333 93.3334 54.2222V24H34.6667V54.2222C34.6667 58.1333 37.8667 61.3333 41.7779 61.3333H86.2223Z" fill="#2FDF84"></path>
    <path d="M96 74.6666C96 73.9911 96.1742 73.3688 96.4445 72.7964C95.7333 71.2853 94.2222 70.2222 92.4444 70.2222C89.9911 70.2222 88 72.2133 88 74.6666C88 77.1199 89.9911 79.1111 92.4444 79.1111C94.2222 79.1111 95.7333 78.0479 96.4445 76.5368C96.1742 75.9644 96 75.3422 96 74.6666Z" fill="#D5DBE1"></path>
    <path d="M39.1111 74.6666C39.1111 73.9911 39.2853 73.3688 39.5555 72.7964C38.8444 71.2853 37.3333 70.2222 35.5555 70.2222C33.1022 70.2222 31.1111 72.2133 31.1111 74.6666C31.1111 77.1199 33.1022 79.1111 35.5555 79.1111C37.3333 79.1111 38.8444 78.0479 39.5555 76.5368C39.2853 75.9644 39.1111 75.3422 39.1111 74.6666Z" fill="#D5DBE1"></path>
    <path d="M64 72.8887C64 69.934 65.6178 67.3847 68 65.998C66.8196 65.3118 65.4649 64.8887 64 64.8887C59.5804 64.8887 56 68.4691 56 72.8887C56 77.3082 59.5804 80.8887 64 80.8887C65.4649 80.8887 66.8196 80.4656 68 79.7793C65.6178 78.3927 64 75.8433 64 72.8887Z" fill="#D5DBE1"></path>
    <path d="M62.2222 91.5557H54.2222C50.2933 91.5557 47.1111 94.7379 47.1111 98.6668V106.667H55.1111V98.6668C55.1111 94.7379 58.2933 91.5557 62.2222 91.5557Z" fill="#D5DBE1"></path>
    <path d="M39.1111 88H31.1111C27.1822 88 24 91.1822 24 95.1111V99.5556H32V95.1111C32 91.1822 35.1822 88 39.1111 88Z" fill="#D5DBE1"></path>
    <path d="M96 88H88C84.0711 88 80.8889 91.1822 80.8889 95.1111V99.5556H88.8889V95.1111C88.8889 91.1822 92.0711 88 96 88Z" fill="#D5DBE1"></path>
    <path d="M42.6667 54.2222V24H34.6667V54.2222C34.6667 58.1333 37.8667 61.3333 41.7779 61.3333H49.7779C45.8668 61.3333 42.6667 58.1333 42.6667 54.2222Z" fill="#00B871"></path>
    <path d="M27.5555 21.3335H100.444V26.6668H27.5555V21.3335Z" fill="black"></path>
    <path d="M86.2222 64.0002H78.2222V58.6668H86.2222C88.672 58.6668 90.6667 56.6722 90.6667 54.2224V26.6668H37.3333V54.2224C37.3333 56.6722 39.328 58.6668 41.7778 58.6668H49.7778V64.0002H41.7778C36.384 64.0002 32 59.6162 32 54.2224V24.0002C32 22.5282 33.1947 21.3335 34.6667 21.3335H93.3333C94.8053 21.3335 96 22.5282 96 24.0002V54.2224C96 59.6162 91.616 64.0002 86.2222 64.0002Z" fill="black"></path>
    <path d="M52.5511 52.5509L48.7822 48.7821L57.6711 39.8932C58.5209 39.0398 59.8364 38.8656 60.8782 39.4629L65.4044 42.0514L75.5236 32.7109L79.1431 36.6327L67.5876 47.2994C66.7342 48.0887 65.4684 48.2345 64.4551 47.6549L60.0036 45.1092L52.5511 52.5509Z" fill="black"></path>
    <path d="M80.0001 46.2222H74.6667V37.3333H65.7778V32H77.3334C78.8054 32 80.0001 33.1947 80.0001 34.6667V46.2222Z" fill="black"></path>
    <path d="M92.4444 81.7779C88.5226 81.7779 85.3333 78.5886 85.3333 74.6668C85.3333 70.745 88.5226 67.5557 92.4444 67.5557C96.3661 67.5557 99.5555 70.745 99.5555 74.6668C99.5555 78.5886 96.3661 81.7779 92.4444 81.7779ZM92.4444 72.889C91.463 72.889 90.6666 73.6854 90.6666 74.6668C90.6666 75.6481 91.463 76.4446 92.4444 76.4446C93.4257 76.4446 94.2221 75.6481 94.2221 74.6668C94.2221 73.6854 93.4257 72.889 92.4444 72.889Z" fill="black"></path>
    <path d="M106.667 99.5557H101.333V95.1113C101.333 92.6615 99.3386 90.6668 96.8888 90.6668H85.3333V85.3335H96.8888C102.283 85.3335 106.667 89.7175 106.667 95.1113V99.5557Z" fill="black"></path>
    <path d="M35.5556 81.7779C31.6338 81.7779 28.4445 78.5886 28.4445 74.6668C28.4445 70.745 31.6338 67.5557 35.5556 67.5557C39.4773 67.5557 42.6667 70.745 42.6667 74.6668C42.6667 78.5886 39.4773 81.7779 35.5556 81.7779ZM35.5556 72.889C34.5742 72.889 33.7778 73.6854 33.7778 74.6668C33.7778 75.6481 34.5742 76.4446 35.5556 76.4446C36.5369 76.4446 37.3333 75.6481 37.3333 74.6668C37.3333 73.6854 36.5369 72.889 35.5556 72.889Z" fill="black"></path>
    <path d="M26.6666 99.5557H21.3333V95.1113C21.3333 89.7175 25.7173 85.3335 31.111 85.3335H42.6666V90.6668H31.111C28.6613 90.6668 26.6666 92.6615 26.6666 95.1113V99.5557Z" fill="black"></path>
    <path d="M63.9999 83.5555C58.119 83.5555 53.3333 78.7697 53.3333 72.8888C53.3333 67.0079 58.119 62.2222 63.9999 62.2222C69.8808 62.2222 74.6666 67.0079 74.6666 72.8888C74.6666 78.7697 69.8808 83.5555 63.9999 83.5555ZM63.9999 67.5555C61.0595 67.5555 58.6666 69.9484 58.6666 72.8888C58.6666 75.8293 61.0595 78.2222 63.9999 78.2222C66.9404 78.2222 69.3332 75.8293 69.3332 72.8888C69.3332 69.9484 66.9404 67.5555 63.9999 67.5555Z" fill="black"></path>
    <path d="M83.5554 106.666H78.2221V98.6665C78.2221 96.2167 76.2274 94.222 73.7777 94.222H54.2221C51.7723 94.222 49.7777 96.2167 49.7777 98.6665V106.666H44.4443V98.6665C44.4443 93.2727 48.8283 88.8887 54.2221 88.8887H73.7777C79.1714 88.8887 83.5554 93.2727 83.5554 98.6665V106.666Z" fill="black"></path>
    <path d="M7.11108 101.333H120.889V106.667H7.11108V101.333Z" fill="black"></path>
  </symbol>
  <symbol xmlns="http://www.w3.org/2000/svg" viewBox="0 0 24 24" id="twitter_ic">
    <path d="M21.576 6.04844C20.856 6.36044 20.112 6.57644 19.32 6.67244C20.136 6.19244 20.76 5.42444 21.048 4.48844C20.28 4.94444 19.44 5.25644 18.552 5.44844C17.832 4.68044 16.8 4.20044 15.672 4.20044C13.488 4.20044 11.736 5.97644 11.736 8.13644C11.736 8.44844 11.76 8.73644 11.832 9.02444C8.56804 8.88044 5.68804 7.29644 3.74404 4.92044C2.35204 7.41644 3.91204 9.48044 4.94404 10.1764C4.32004 10.1764 3.69604 9.98444 3.16804 9.69644C3.16804 11.6404 4.53604 13.2484 6.31204 13.6084C5.92804 13.7284 5.06404 13.8004 4.53604 13.6804C5.04004 15.2404 6.50404 16.3924 8.20804 16.4164C6.86404 17.4724 4.89604 18.3124 2.37604 18.0484C4.12804 19.1764 6.19204 19.8244 8.42404 19.8244C15.672 19.8244 19.608 13.8244 19.608 8.64044C19.608 8.47244 19.608 8.30444 19.584 8.13644C20.4 7.53644 21.072 6.84044 21.576 6.04844Z"></path>
  </symbol>
  <symbol fill="none" xmlns="http://www.w3.org/2000/svg" viewBox="0 0 128 128" id="stim proj">
    <path d="M41.0027 123.741C64.6294 116.917 84.3912 124.473 95.7761 121.184C107.161 117.895 129.184 104.445 114.059 52.0641C98.9334 -0.316335 64.5512 1.29078 52.025 4.90678C-6.61682 21.8419 -0.842601 135.826 41.0027 123.741Z" fill="#EFEFEF"></path>
    <path d="M31.8983 22.7905L36.9267 17.7622L39.4408 20.2764L34.4125 25.3047L31.8983 22.7905Z" fill="#A4AFC1"></path>
    <path d="M17.439 37.2422L22.4673 32.2139L24.9814 34.728L19.9531 39.7563L17.439 37.2422Z" fill="#A4AFC1"></path>
    <path d="M17.4421 19.6455L19.9563 17.1313L24.9846 22.1597L22.4704 24.6738L17.4421 19.6455Z" fill="#A4AFC1"></path>
    <path d="M107.556 117.945C104.615 117.945 102.222 115.552 102.222 112.612C102.222 109.671 104.615 107.278 107.556 107.278C110.496 107.278 112.889 109.671 112.889 112.612C112.889 115.552 110.496 117.945 107.556 117.945ZM107.556 110.834C106.578 110.834 105.778 111.634 105.778 112.612C105.778 113.589 106.578 114.389 107.556 114.389C108.533 114.389 109.333 113.589 109.333 112.612C109.333 111.634 108.533 110.834 107.556 110.834Z" fill="#A4AFC1"></path>
    <path d="M64.0001 32.8889C66.4547 32.8889 68.4446 30.899 68.4446 28.4444C68.4446 25.9898 66.4547 24 64.0001 24C61.5455 24 59.5557 25.9898 59.5557 28.4444C59.5557 30.899 61.5455 32.8889 64.0001 32.8889Z" fill="#F3F3F1"></path>
    <path d="M89.1412 43.303C91.5958 43.303 93.5857 41.3131 93.5857 38.8585C93.5857 36.4039 91.5958 34.4141 89.1412 34.4141C86.6866 34.4141 84.6968 36.4039 84.6968 38.8585C84.6968 41.3131 86.6866 43.303 89.1412 43.303Z" fill="#F3F3F1"></path>
    <path d="M85.3689 42.6313L76.5867 51.4136L85.3689 42.6313Z" fill="#2FDF84"></path>
    <path d="M99.5558 68.4446C102.01 68.4446 104 66.4547 104 64.0001C104 61.5455 102.01 59.5557 99.5558 59.5557C97.1012 59.5557 95.1113 61.5455 95.1113 64.0001C95.1113 66.4547 97.1012 68.4446 99.5558 68.4446Z" fill="#F3F3F1"></path>
    <path d="M89.1412 93.5857C91.5958 93.5857 93.5857 91.5958 93.5857 89.1412C93.5857 86.6866 91.5958 84.6968 89.1412 84.6968C86.6866 84.6968 84.6968 86.6866 84.6968 89.1412C84.6968 91.5958 86.6866 93.5857 89.1412 93.5857Z" fill="#F3F3F1"></path>
    <path d="M85.3688 85.3688L82.311 82.311L85.3688 85.3688Z" fill="#2FDF84"></path>
    <path d="M64.0001 104C66.4547 104 68.4446 102.01 68.4446 99.5558C68.4446 97.1012 66.4547 95.1113 64.0001 95.1113C61.5455 95.1113 59.5557 97.1012 59.5557 99.5558C59.5557 102.01 61.5455 104 64.0001 104Z" fill="#F3F3F1"></path>
    <path d="M38.8585 93.5857C41.3131 93.5857 43.303 91.5958 43.303 89.1412C43.303 86.6866 41.3131 84.6968 38.8585 84.6968C36.4039 84.6968 34.4141 86.6866 34.4141 89.1412C34.4141 91.5958 36.4039 93.5857 38.8585 93.5857Z" fill="#F3F3F1"></path>
    <path d="M45.8667 82.1333L42.6311 85.3689L45.8667 82.1333Z" fill="#2FDF84"></path>
    <path d="M28.4444 68.4446C30.899 68.4446 32.8889 66.4547 32.8889 64.0001C32.8889 61.5455 30.899 59.5557 28.4444 59.5557C25.9898 59.5557 24 61.5455 24 64.0001C24 66.4547 25.9898 68.4446 28.4444 68.4446Z" fill="#F3F3F1"></path>
    <path d="M38.8585 43.303C41.3131 43.303 43.303 41.3131 43.303 38.8585C43.303 36.4039 41.3131 34.4141 38.8585 34.4141C36.4039 34.4141 34.4141 36.4039 34.4141 38.8585C34.4141 41.3131 36.4039 43.303 38.8585 43.303Z" fill="#F3F3F1"></path>
    <path d="M51.4844 51.4847L42.6311 42.6313L51.4844 51.4847Z" fill="#2FDF84"></path>
    <path d="M64.0463 73.9233L54.7236 79.1109L56.4694 68.1811L48.8889 60.4727L59.3245 58.8442L63.9609 48.8887L68.6649 58.8122L79.1111 60.3696L71.5805 68.1313L73.4045 79.0469L64.0463 73.9233Z" fill="#2FDF84"></path>
    <path d="M62.528 74.766L63.5805 68.1811L56 60.4727L66.4356 58.8442L67.5485 56.4549L63.9609 48.8887L59.3245 58.8442L48.8889 60.4727L56.4694 68.1811L54.7236 79.1109L62.528 74.766Z" fill="#00B871"></path>
    <path d="M64 35.5557C60.0783 35.5557 56.8889 32.3664 56.8889 28.4446C56.8889 24.5228 60.0783 21.3335 64 21.3335C67.9218 21.3335 71.1111 24.5228 71.1111 28.4446C71.1111 32.3664 67.9218 35.5557 64 35.5557ZM64 26.6668C63.0223 26.6668 62.2223 27.4668 62.2223 28.4446C62.2223 29.4224 63.0223 30.2224 64 30.2224C64.9778 30.2224 65.7778 29.4224 65.7778 28.4446C65.7778 27.4668 64.9778 26.6668 64 26.6668Z" fill="black"></path>
    <path d="M61.3335 33.7778H66.6668V38.8623H61.3335V33.7778Z" fill="black"></path>
    <path d="M89.1412 45.9664C87.3208 45.9664 85.5004 45.273 84.1137 43.8864C81.3404 41.1166 81.3404 36.601 84.1137 33.8312C86.8835 31.0615 91.399 31.0615 94.1688 33.8312C96.9421 36.601 96.9421 41.1166 94.1688 43.8864C92.7857 45.2695 90.9617 45.9664 89.1412 45.9664ZM89.1412 37.081C88.6861 37.081 88.231 37.2552 87.8826 37.6001C87.1892 38.2935 87.1892 39.4206 87.8826 40.1139C88.5759 40.8072 89.703 40.8072 90.3964 40.1139C91.0897 39.4206 91.0897 38.2935 90.3964 37.6001C90.0515 37.2552 89.5964 37.081 89.1412 37.081Z" fill="black"></path>
    <path d="M74.6892 49.5303L83.4712 40.7483L87.2424 44.5196L78.4604 53.3015L74.6892 49.5303Z" fill="black"></path>
    <path d="M99.5555 71.1109C95.6337 71.1109 92.4443 67.9216 92.4443 63.9998C92.4443 60.078 95.6337 56.8887 99.5555 56.8887C103.477 56.8887 106.667 60.078 106.667 63.9998C106.667 67.9216 103.477 71.1109 99.5555 71.1109ZM99.5555 62.222C98.5777 62.222 97.7777 63.022 97.7777 63.9998C97.7777 64.9776 98.5777 65.7776 99.5555 65.7776C100.533 65.7776 101.333 64.9776 101.333 63.9998C101.333 63.022 100.533 62.222 99.5555 62.222Z" fill="black"></path>
    <path d="M87.0754 61.3335H94.2221V66.6668H87.0754V61.3335Z" fill="black"></path>
    <path d="M89.1412 96.2491C87.3208 96.2491 85.5004 95.5557 84.1137 94.1691C81.3404 91.3993 81.3404 86.8837 84.1137 84.114C86.8835 81.3442 91.399 81.3442 94.1688 84.114C96.9421 86.8837 96.9421 91.3993 94.1688 94.1691C92.7857 95.5557 90.9617 96.2491 89.1412 96.2491ZM89.1412 87.3637C88.6861 87.3637 88.231 87.5379 87.8826 87.8828C87.1892 88.5762 87.1892 89.7033 87.8826 90.3966C88.5759 91.0899 89.703 91.0899 90.3964 90.3966C91.0897 89.7033 91.0897 88.5762 90.3964 87.8828C90.0515 87.5379 89.5964 87.3637 89.1412 87.3637Z" fill="black"></path>
    <path d="M80.4089 84.1968L84.1802 80.4255L87.2349 83.4802L83.4636 87.2515L80.4089 84.1968Z" fill="black"></path>
    <path d="M64 106.667C60.0783 106.667 56.8889 103.477 56.8889 99.5555C56.8889 95.6337 60.0783 92.4443 64 92.4443C67.9218 92.4443 71.1111 95.6337 71.1111 99.5555C71.1111 103.477 67.9218 106.667 64 106.667ZM64 97.7777C63.0223 97.7777 62.2223 98.5777 62.2223 99.5555C62.2223 100.533 63.0223 101.333 64 101.333C64.9778 101.333 65.7778 100.533 65.7778 99.5555C65.7778 98.5777 64.9778 97.7777 64 97.7777Z" fill="black"></path>
    <path d="M61.3335 83.5557H66.6668V94.2223H61.3335V83.5557Z" fill="black"></path>
    <path d="M38.8588 96.2491C37.0383 96.2491 35.2179 95.5557 33.8312 94.1691C31.0579 91.3993 31.0579 86.8837 33.8312 84.114C36.601 81.3442 41.1166 81.3442 43.8863 84.114C46.6597 86.8837 46.6597 91.3993 43.8863 94.1691C42.4997 95.5557 40.6757 96.2491 38.8588 96.2491ZM38.8588 87.3637C38.4037 87.3637 37.9486 87.5379 37.6001 87.8828C36.9068 88.5762 36.9068 89.7033 37.6001 90.3966C38.2934 91.0899 39.4206 91.0899 40.1139 90.3966C40.8072 89.7033 40.8072 88.5762 40.1139 87.8828C39.769 87.5379 39.3139 87.3637 38.8588 87.3637Z" fill="black"></path>
    <path d="M40.7329 83.4775L43.9686 80.2418L47.7399 84.0131L44.5041 87.2488L40.7329 83.4775Z" fill="black"></path>
    <path d="M28.4446 71.1109C24.5228 71.1109 21.3335 67.9216 21.3335 63.9998C21.3335 60.078 24.5228 56.8887 28.4446 56.8887C32.3664 56.8887 35.5557 60.078 35.5557 63.9998C35.5557 67.9216 32.3664 71.1109 28.4446 71.1109ZM28.4446 62.222C27.4668 62.222 26.6668 63.022 26.6668 63.9998C26.6668 64.9776 27.4668 65.7776 28.4446 65.7776C29.4224 65.7776 30.2224 64.9776 30.2224 63.9998C30.2224 63.022 29.4224 62.222 28.4446 62.222Z" fill="black"></path>
    <path d="M33.7778 61.3335H40.8178V66.6668H33.7778V61.3335Z" fill="black"></path>
    <path d="M38.8588 45.9664C37.0383 45.9664 35.2179 45.273 33.8312 43.8864C31.0579 41.1166 31.0579 36.601 33.8312 33.8312C36.601 31.0615 41.1166 31.0615 43.8863 33.8312C46.6597 36.601 46.6597 41.1166 43.8863 43.8864C42.4997 45.2695 40.6757 45.9664 38.8588 45.9664ZM38.8588 37.081C38.4037 37.081 37.9486 37.2552 37.6001 37.6001C36.9068 38.2935 36.9068 39.4206 37.6001 40.1139C38.2934 40.8072 39.4206 40.8072 40.1139 40.1139C40.8072 39.4206 40.8072 38.2935 40.1139 37.6001C39.769 37.2552 39.3139 37.081 38.8588 37.081Z" fill="black"></path>
    <path d="M40.7361 44.5161L44.5073 40.7449L53.3622 49.5997L49.5909 53.371L40.7361 44.5161Z" fill="black"></path>
    <path d="M54.7272 81.7777C54.1903 81.7777 53.6534 81.6142 53.1983 81.2942C52.3627 80.7111 51.9325 79.6977 52.0925 78.6915L53.6249 69.0915L46.9903 62.3466C46.2898 61.6319 46.0409 60.5866 46.3574 59.6373C46.6703 58.6844 47.488 57.9946 48.48 57.8382L57.5112 56.4302L61.5467 47.7653C61.9805 46.8266 62.9227 46.2257 63.9538 46.2222H63.9645C64.9956 46.2222 65.9343 46.8159 66.3752 47.7475L70.4676 56.3875L79.5058 57.7315C80.4943 57.8808 81.3192 58.5671 81.6392 59.5164C81.9627 60.4622 81.7245 61.5111 81.0276 62.2293L74.4356 69.0239L76.0356 78.6133C76.2027 79.6195 75.7796 80.6328 74.9476 81.2231C74.1121 81.8168 73.0098 81.8773 72.1209 81.3902L64.0534 76.9706L56.0214 81.4435C55.6196 81.6675 55.1716 81.7777 54.7272 81.7777ZM54.4356 62.3039L58.3716 66.3075C58.9689 66.9119 59.2392 67.7617 59.104 68.6008L58.2258 74.1119L62.7449 71.5946C63.552 71.1466 64.5192 71.1431 65.3263 71.5839L69.8703 74.0728L68.9494 68.5688C68.8107 67.7368 69.0774 66.8799 69.6676 66.2719L73.5787 62.2364L68.2703 61.4471C67.392 61.3155 66.6347 60.7537 66.2543 59.9502L63.9823 55.1537L61.7423 59.9644C61.3689 60.7715 60.6152 61.3368 59.7369 61.4755L54.4356 62.3039Z" fill="black"></path>
  </symbol>
  <symbol fill="none" xmlns="http://www.w3.org/2000/svg" viewBox="0 0 128 128" id="working remotely">
    <path d="M29.7851 14.8162C54.3789 14.8162 71.2678 2.07666 83.1184 2.07666C94.9691 2.07666 119.858 8.88911 119.858 63.4064C119.858 117.924 86.3753 125.924 73.3407 125.924C12.3024 125.927 -13.7705 14.8162 29.7851 14.8162Z" fill="#EFEFEF"></path>
    <path d="M101.333 47.111C98.3929 47.111 96 44.7181 96 41.7777C96 38.8372 98.3929 36.4443 101.333 36.4443C104.274 36.4443 106.667 38.8372 106.667 41.7777C106.667 44.7181 104.274 47.111 101.333 47.111ZM101.333 39.9999C100.356 39.9999 99.5556 40.7999 99.5556 41.7777C99.5556 42.7554 100.356 43.5554 101.333 43.5554C102.311 43.5554 103.111 42.7554 103.111 41.7777C103.111 40.7999 102.311 39.9999 101.333 39.9999Z" fill="#A4AFC1"></path>
    <path d="M92.7644 56.4978L82.6667 46.8622V27.5556H72V36.6933L58.6667 24L24.5689 56.4978C24.2133 56.8178 24 57.28 24 57.7778C24 58.7733 24.7822 59.5556 25.7778 59.5556H34.6667V84.4444C34.6667 87.3884 37.056 89.7778 40 89.7778H79.1111C81.0738 89.7778 82.6667 88.1849 82.6667 86.2222V59.5556H91.5556C92.5511 59.5556 93.3333 58.7733 93.3333 57.7778C93.3333 57.28 93.12 56.8178 92.7644 56.4978Z" fill="#F3F3F1"></path>
    <path d="M72.0001 104H70.2223C68.2596 104 66.6667 102.407 66.6667 100.444V84.4442C66.6667 82.4816 68.2596 80.8887 70.2223 80.8887H72.0001C73.9628 80.8887 75.5556 82.4816 75.5556 84.4442V100.444C75.5556 102.4 73.9556 104 72.0001 104Z" fill="#2FDF84"></path>
    <path d="M75.449 82.0978C77.4401 80.8533 82.4534 77.2622 82.4534 72.6045C82.4534 68.4445 84.1956 66.7378 85.8312 66.7378C87.5023 66.7378 89.9912 69.2622 89.9912 74.24C89.9912 78.4 88.3201 80.8889 88.3201 80.8889H97.209C101.013 80.8889 104 84.0178 104 87.68C104 88.64 102.045 98.3111 102.009 98.3111C101.476 101.582 98.4534 104 95.1112 104H93.2979C83.769 104 78.4356 101.547 76.4445 100.409L75.5556 100.444L75.449 82.0978Z" fill="#2FDF84"></path>
    <path d="M80 36.6934V27.5557H72V29.0774L80 36.6934Z" fill="#D5DBE1"></path>
    <path d="M42.6668 84.4446V59.5557H34.6668V84.4446C34.6668 87.3886 37.0561 89.7779 40.0001 89.7779H48.0001C45.0561 89.7779 42.6668 87.3886 42.6668 84.4446Z" fill="#D5DBE1"></path>
    <path d="M32 57.7778C32 57.28 32.2133 56.8178 32.5689 56.4978L62.6702 27.8116L58.6667 24L24.5689 56.4978C24.2133 56.8178 24 57.28 24 57.7778C24 58.7733 24.7822 59.5556 25.7778 59.5556H33.7778C32.7822 59.5556 32 58.7733 32 57.7778Z" fill="#D5DBE1"></path>
    <path d="M84.4445 100.409L83.5556 100.444L83.449 82.0978C85.0739 81.0809 88.6685 78.4925 89.9521 75.0471C89.9663 74.7805 89.9912 74.5245 89.9912 74.24C89.9912 69.2622 87.5023 66.7378 85.8312 66.7378C84.1956 66.7378 82.4534 68.4445 82.4534 72.6045C82.4534 77.2622 77.4401 80.8533 75.449 82.0978L75.5556 100.444L76.4445 100.409C78.4356 101.547 83.769 104 93.2979 104H95.1112C95.6765 104 96.2205 103.908 96.7574 103.78C90.0623 103.168 86.0908 101.348 84.4445 100.409Z" fill="#00B871"></path>
    <path d="M72 106.667H70.2222C66.7911 106.667 64 103.876 64 100.444V84.4444C64 81.0133 66.7911 78.2222 70.2222 78.2222H72C75.4311 78.2222 78.2222 81.0133 78.2222 84.4444V100.444C78.2222 103.876 75.4311 106.667 72 106.667ZM70.2222 83.5555C69.7316 83.5555 69.3333 83.9537 69.3333 84.4444V100.444C69.3333 100.935 69.7316 101.333 70.2222 101.333H72C72.4836 101.333 72.8889 100.928 72.8889 100.444V84.4444C72.8889 83.9537 72.4907 83.5555 72 83.5555H70.2222Z" fill="black"></path>
    <path d="M95.111 106.667H93.2977C83.4914 106.667 77.6994 104.199 75.1217 102.727L77.767 98.0943C79.4701 99.0685 84.4017 101.333 93.2977 101.333H95.111C97.1875 101.333 99.0612 99.8152 99.3777 97.8809C99.3955 97.7814 99.4168 97.6783 99.4452 97.5858C99.7012 96.48 101.255 88.6329 101.337 87.584C101.333 85.408 99.4808 83.5556 97.2088 83.5556H88.3199C87.335 83.5556 86.4319 83.0152 85.9661 82.144C85.5039 81.2765 85.5572 80.224 86.1048 79.4027C86.6523 78.5814 87.3243 77.4436 87.3243 74.24C87.3243 71.0507 86.0692 69.5574 85.6177 69.376C85.7706 69.4756 85.1234 70.2969 85.1234 72.6045C85.1234 78.5636 79.3457 82.8089 76.8603 84.3627L74.0408 79.8365C76.8177 78.1049 79.7901 75.296 79.7901 72.608C79.7901 66.7129 82.8266 64.0747 85.831 64.0747C89.1839 64.0747 92.6577 67.8792 92.6577 74.2436C92.6577 75.7618 92.4692 77.0987 92.2026 78.2258H97.2088C102.425 78.2258 106.667 82.4676 106.667 87.6836C106.667 88.0143 106.667 88.5618 105.635 93.8667C105.195 96.1316 104.896 97.6783 104.597 98.7378L104.643 98.7449C103.904 103.26 99.8043 106.667 95.111 106.667Z" fill="black"></path>
    <path d="M54.2221 92.4444H39.9999C35.591 92.4444 31.9999 88.8533 31.9999 84.4444V62.2222H25.7777C23.3279 62.2222 21.3333 60.2275 21.3333 57.7777C21.3333 56.5368 21.8595 55.3457 22.7804 54.5173L56.8248 22.0693C57.8524 21.0915 59.4701 21.0915 60.5048 22.0693L69.3333 30.471V27.5555C69.3333 26.0835 70.5279 24.8888 71.9999 24.8888H82.6666C84.1386 24.8888 85.3333 26.0835 85.3333 27.5555V45.7173L94.6026 54.5635L90.9226 58.4248L80.8248 48.7893C80.2986 48.2844 79.9999 47.5875 79.9999 46.8586V30.2222H74.6666V36.6933C74.6666 37.7599 74.0301 38.7235 73.0524 39.143C72.071 39.5662 70.9333 39.3635 70.1617 38.6239L58.6666 27.6835L28.0248 56.8888H34.6666C36.1386 56.8888 37.3333 58.0835 37.3333 59.5555V84.4444C37.3333 85.9128 38.5315 87.1111 39.9999 87.1111H54.2221V92.4444ZM26.4355 58.4035L26.4106 58.4284C26.4177 58.4213 26.4248 58.4142 26.4355 58.4035Z" fill="black"></path>
  </symbol>
  <symbol fill="none" xmlns="http://www.w3.org/2000/svg" viewBox="0 0 128 128" id="not all about work">
    <path d="M97.4828 13.9163C72.8961 14.375 55.769 1.95185 43.9219 2.17585C32.0748 2.39985 7.31387 9.67451 8.33431 64.1847C9.35475 118.695 42.9796 126.066 56.0143 125.824C117.038 124.683 141.031 13.1021 97.4828 13.9163Z" fill="#EFEFEF"></path>
    <path d="M19.776 28.6792H23.3316V35.7903H19.776V28.6792Z" fill="#A4AFC1"></path>
    <path d="M19.776 49.1235H23.3316V56.2346H19.776V49.1235Z" fill="#A4AFC1"></path>
    <path d="M7.33154 40.2349H14.4427V43.7904H7.33154V40.2349Z" fill="#A4AFC1"></path>
    <path d="M106.666 88.6437C103.726 88.6437 101.333 86.2508 101.333 83.3104C101.333 80.3699 103.726 77.9771 106.666 77.9771C109.607 77.9771 112 80.3699 112 83.3104C112 86.2508 109.607 88.6437 106.666 88.6437ZM106.666 81.5326C105.685 81.5326 104.889 82.3291 104.889 83.3104C104.889 84.2917 105.685 85.0882 106.666 85.0882C107.648 85.0882 108.444 84.2917 108.444 83.3104C108.444 82.3291 107.648 81.5326 106.666 81.5326Z" fill="#A4AFC1"></path>
    <path d="M84.8711 52.8746C85.1769 43.3102 104 24.1777 104 24.1777C64 24.1777 58.3467 41.568 58.3467 41.568C55.0116 32.8711 60.5191 27.6551 60.5191 27.6551C60.5191 27.6551 46.7698 27.7653 37.9093 36.5617C28.9245 45.4791 32.6933 58.9582 32.6933 58.9582C32.6933 58.9582 37.216 72.5795 51.6302 79.3813C69.9698 88.0355 86.6062 81.568 86.6062 81.568C102.258 74.6133 103.996 48.5262 103.996 48.5262C98.6382 53.7422 84.8711 52.8746 84.8711 52.8746Z" fill="#2FDF84"></path>
    <path d="M67.2355 42.4568C67.2355 42.4568 71.9786 28.1848 102.709 25.5288C103.495 24.6933 104 24.1777 104 24.1777C86.823 24.1777 76.0213 27.3884 69.2515 31.0471C67.687 31.8933 66.5564 33.376 66.3004 35.136C66.0053 37.1662 66.151 39.6266 67.2355 42.4568Z" fill="#00B871"></path>
    <path d="M98.6666 53.7424C101.49 53.5966 103.797 51.3459 104 48.5264C101.643 50.8197 97.6603 51.9361 93.9377 52.4695C93.8595 52.9104 93.7706 53.3584 93.7563 53.7637C93.7599 53.7637 95.8221 53.8881 98.6666 53.7424Z" fill="#00B871"></path>
    <path d="M60.5226 80.2738C47.3492 74.0551 42.4355 62.1405 41.6888 60.1387C41.6106 59.9325 41.5608 59.7654 41.5075 59.5485C41.0204 57.5111 38.6061 45.5858 46.8017 37.4543C49.7635 34.5138 53.2692 32.5547 56.6257 31.2356C57.7848 30.7805 58.7555 29.9911 59.4595 28.9636C60.0461 28.1067 60.519 27.6587 60.519 27.6587C60.519 27.6587 46.7697 27.7689 37.9092 36.5654C29.7137 44.6969 32.1279 56.6223 32.615 58.6596C32.6684 58.8765 32.7181 59.0436 32.7964 59.2498C33.543 61.2516 38.4532 73.1663 51.6301 79.3849C58.855 82.7947 65.799 83.84 71.5804 83.8756C68.0532 83.1894 64.3306 82.0694 60.5226 80.2738Z" fill="#00B871"></path>
    <path d="M53.5644 94.0764L35.2924 104.178L38.784 82.7839L24 67.6337L44.4302 64.5119L53.5644 45.0488L62.7022 64.5119L83.1289 67.6337L68.3484 82.7839L71.8364 104.178L53.5644 94.0764Z" fill="#F3F3F1"></path>
    <path d="M52.4304 61.8453L56.9389 52.2346L53.5646 45.0488L45.1593 62.9546L52.4304 61.8453Z" fill="#D5DBE1"></path>
    <path d="M61.5644 91.4097L55.1537 94.9546L71.8363 104.178L70.567 96.3874L61.5644 91.4097Z" fill="#D5DBE1"></path>
    <path d="M43.6089 99.5804L46.784 80.1173L33.2267 66.2222L24 67.6337L38.784 82.784L35.2924 104.178L43.6089 99.5804Z" fill="#D5DBE1"></path>
    <path d="M71.8365 106.845C71.3921 106.845 70.9476 106.734 70.5459 106.51L53.5645 97.1237L36.5832 106.51C35.6872 107.005 34.5885 106.944 33.7565 106.357C32.921 105.767 32.4979 104.754 32.6614 103.748L35.9325 83.6837L22.0907 69.497C21.3939 68.7823 21.1521 67.7334 21.4685 66.7877C21.785 65.8383 22.6063 65.1521 23.5948 64.9992L42.617 62.0908L51.1503 43.9148C51.5912 42.9797 52.5299 42.3823 53.5645 42.3823C54.5992 42.3823 55.5379 42.9797 55.9787 43.9148L64.5085 62.0908L83.5308 64.9992C84.5192 65.1485 85.3405 65.8383 85.657 66.7877C85.9734 67.737 85.7316 68.7823 85.0347 69.497L71.193 83.6837L74.4641 103.748C74.6276 104.754 74.2045 105.767 73.369 106.357C72.9139 106.681 72.377 106.845 71.8365 106.845ZM29.5325 69.4863L40.6899 80.921C41.2836 81.5254 41.5503 82.3788 41.4152 83.2143L38.809 99.1859L52.2774 91.7441C53.081 91.2997 54.0552 91.2997 54.8587 91.7441L68.3236 99.1859L65.7174 83.2143C65.5823 82.3788 65.849 81.529 66.4427 80.921L77.6001 69.4863L62.3005 67.1468C61.4223 67.0117 60.6685 66.4499 60.2916 65.6463L53.5681 51.3245L46.8445 65.6463C46.4676 66.4499 45.7139 67.0152 44.8356 67.1468L29.5325 69.4863Z" fill="black"></path>
    <path d="M87.6941 84.0072L85.5288 79.1326C95.4666 74.7166 99.2603 61.145 100.626 53.5788C94.119 56.025 85.8772 55.609 84.7039 55.5343C83.2675 55.4454 82.1617 54.2259 82.2079 52.7894C82.4461 45.2623 91.8755 33.561 97.7279 27.001C66.279 28.6188 60.935 42.2508 60.8888 42.3966C60.5403 43.4703 59.5519 44.2099 58.4212 44.2383C57.2372 44.2917 56.2666 43.5806 55.8612 42.5281C54.0123 37.7103 54.4675 33.7672 55.4986 30.9121C51.0541 31.7335 44.5759 33.7139 39.7937 38.457C32.0603 46.1334 35.2355 58.1299 35.2675 58.2508L30.1297 59.6801C29.959 59.0686 26.055 44.5797 36.0355 34.6703C45.5572 25.2197 59.8968 24.9957 60.5012 24.9886C61.5643 25.0597 62.5848 25.6428 62.9972 26.6597C63.4061 27.6766 63.1501 28.8392 62.3572 29.593C62.2612 29.689 60.5546 31.4206 60.0746 34.4819C65.5999 28.8606 77.831 21.5112 104 21.5112C105.074 21.5112 106.044 22.1583 106.46 23.1468C106.876 24.1388 106.656 25.2837 105.902 26.0481C99.7972 32.2561 90.5066 43.4028 88.1137 50.2614C92.5688 50.1726 99.2568 49.4223 102.14 46.617C102.933 45.8454 104.117 45.6428 105.116 46.1086C106.119 46.5708 106.734 47.6054 106.659 48.7041C106.585 49.8348 104.619 76.4837 87.6941 84.0072Z" fill="black"></path>
  </symbol>
  <symbol xmlns="http://www.w3.org/2000/svg" viewBox="0 0 11 21" id="Vector">
    <path d="M9.47963 4.74418V15.5188C9.47963 17.5894 7.85235 19.2665 5.84326 19.2665C3.83417 19.2665 2.2069 17.5894 2.2069 15.5188V3.80726C2.2069 2.51431 3.22508 1.46495 4.47963 1.46495C5.73417 1.46495 6.75235 2.51431 6.75235 3.80726V13.645C6.75235 14.1603 6.34326 14.5819 5.84326 14.5819C5.34326 14.5819 4.93417 14.1603 4.93417 13.645V4.74418H3.57053V13.645C3.57053 14.9379 4.58872 15.9873 5.84326 15.9873C7.09781 15.9873 8.11599 14.9379 8.11599 13.645V3.80726C8.11599 1.73666 6.48872 0.0595703 4.47963 0.0595703C2.47053 0.0595703 0.843262 1.73666 0.843262 3.80726V15.5188C0.843262 18.367 3.07963 20.6719 5.84326 20.6719C8.6069 20.6719 10.8433 18.367 10.8433 15.5188V4.74418H9.47963Z"></path>
  </symbol>
  <symbol viewBox="0 0 20 20" fill="none" xmlns="http://www.w3.org/2000/svg" id="check">
    <path d="M10 0C4.48 0 0 4.48 0 10C0 15.52 4.48 20 10 20C15.52 20 20 15.52 20 10C20 4.48 15.52 0 10 0ZM8 15L3 10L4.41 8.59L8 12.17L15.59 4.58L17 6L8 15Z" fill="#18E8A4"/>
  </symbol>
  <symbol viewBox="0 0 20 20" fill="none" xmlns="http://www.w3.org/2000/svg" id="cross">
    <path d="M10 0C4.475 0 0 4.475 0 10C0 15.525 4.475 20 10 20C15.525 20 20 15.525 20 10C20 4.475 15.525 0 10 0ZM15 13.585L13.585 15L10 11.415L6.415 15L5 13.585L8.585 10L5 6.415L6.415 5L10 8.585L13.585 5L15 6.415L11.415 10L15 13.585Z" fill="#E8184A"/>
  </symbol>
  <symbol  viewBox="0 0 1259 175" fill="none" xmlns="http://www.w3.org/2000/svg" id="arrow-tablet">
    <path d="M6 161H220C233.255 161 244 150.255 244 137V30C244 16.7452 254.745 6 268 6H270C283.255 6 294 16.7452 294 30V137C294 150.255 304.745 161 318 161H587C600.255 161 611 150.255 611 137V30C611 16.7452 621.745 6 635 6H637C650.255 6 661 16.7452 661 30V137C661 150.255 671.745 161 685 161H948C961.255 161 972 150.255 972 137V30C972 16.7452 982.745 6 996 6H998C1011.25 6 1022 16.7452 1022 30V137C1022 150.255 1032.75 161 1046 161H1253" stroke="black" stroke-opacity="0.1" stroke-width="12" stroke-linecap="round" stroke-linejoin="round"/>
    <path d="M87 149L99 161L87 173" stroke="#484A4A" stroke-width="4" stroke-linecap="round" stroke-linejoin="round"/>
    <path d="M52 161H99" stroke="#484A4A" stroke-width="4" stroke-linecap="round" stroke-linejoin="round"/>
    <path d="M232 94L244 82L256 94" stroke="#484A4A" stroke-width="4" stroke-linecap="round" stroke-linejoin="round"/>
    <path d="M244 122V82" stroke="#484A4A" stroke-width="4" stroke-linecap="round" stroke-linejoin="round"/>
    <path d="M600 94L612 82L624 94" stroke="#484A4A" stroke-width="4" stroke-linecap="round" stroke-linejoin="round"/>
    <path d="M612 122V82" stroke="#484A4A" stroke-width="4" stroke-linecap="round" stroke-linejoin="round"/>
    <path d="M960 94L972 82L984 94" stroke="#484A4A" stroke-width="4" stroke-linecap="round" stroke-linejoin="round"/>
    <path d="M972 122V82" stroke="#484A4A" stroke-width="4" stroke-linecap="round" stroke-linejoin="round"/>
    <path d="M282 86L294 98L306 86" stroke="#484A4A" stroke-width="4" stroke-linecap="round" stroke-linejoin="round"/>
    <path d="M294 58V98" stroke="#484A4A" stroke-width="4" stroke-linecap="round" stroke-linejoin="round"/>
    <path d="M650 86L662 98L674 86" stroke="#484A4A" stroke-width="4" stroke-linecap="round" stroke-linejoin="round"/>
    <path d="M662 58V98" stroke="#484A4A" stroke-width="4" stroke-linecap="round" stroke-linejoin="round"/>
    <path d="M1010 86L1022 98L1034 86" stroke="#484A4A" stroke-width="4" stroke-linecap="round" stroke-linejoin="round"/>
    <path d="M1022 58V98" stroke="#484A4A" stroke-width="4" stroke-linecap="round" stroke-linejoin="round"/>
    <path d="M465 149L477 161L465 173" stroke="#484A4A" stroke-width="4" stroke-linecap="round" stroke-linejoin="round"/>
    <path d="M430 161H477" stroke="#484A4A" stroke-width="4" stroke-linecap="round" stroke-linejoin="round"/>
    <path d="M829 149L841 161L829 173" stroke="#484A4A" stroke-width="4" stroke-linecap="round" stroke-linejoin="round"/>
    <path d="M794 161H841" stroke="#484A4A" stroke-width="4" stroke-linecap="round" stroke-linejoin="round"/>
    <path d="M1193 149L1205 161L1193 173" stroke="#484A4A" stroke-width="4" stroke-linecap="round" stroke-linejoin="round"/>
    <path d="M1158 161H1205" stroke="#484A4A" stroke-width="4" stroke-linecap="round" stroke-linejoin="round"/>
  </symbol>
  <symbol viewBox="0 0 1417 175" fill="none" xmlns="http://www.w3.org/2000/svg" id="arrow-desk">
    <path d="M6 161H497C510.255 161 521 150.255 521 137V30C521 16.7452 531.745 6 545 6H547C560.255 6 571 16.7452 571 30V137C571 150.255 581.745 161 595 161H1139C1152.25 161 1163 150.255 1163 137V30C1163 16.7452 1173.75 6 1187 6H1189C1202.25 6 1213 16.7452 1213 30V137C1213 150.255 1223.75 161 1237 161H1411" stroke="black" stroke-opacity="0.1" stroke-width="12" stroke-linecap="round" stroke-linejoin="round"/>
    <path d="M67 149L79 161L67 173" stroke="#484A4A" stroke-width="4" stroke-linecap="round" stroke-linejoin="round"/>
    <path d="M32 161H79" stroke="#484A4A" stroke-width="4" stroke-linecap="round" stroke-linejoin="round"/>
    <path d="M510 94L522 82L534 94" stroke="#484A4A" stroke-width="4" stroke-linecap="round" stroke-linejoin="round"/>
    <path d="M522 122V82" stroke="#484A4A" stroke-width="4" stroke-linecap="round" stroke-linejoin="round"/>
    <path d="M1151 94L1163 82L1175 94" stroke="#484A4A" stroke-width="4" stroke-linecap="round" stroke-linejoin="round"/>
    <path d="M1163 122V82" stroke="#484A4A" stroke-width="4" stroke-linecap="round" stroke-linejoin="round"/>
    <path d="M560 86L572 98L584 86" stroke="#484A4A" stroke-width="4" stroke-linecap="round" stroke-linejoin="round"/>
    <path d="M572 58V98" stroke="#484A4A" stroke-width="4" stroke-linecap="round" stroke-linejoin="round"/>
    <path d="M1201 86L1213 98L1225 86" stroke="#484A4A" stroke-width="4" stroke-linecap="round" stroke-linejoin="round"/>
    <path d="M1213 58V98" stroke="#484A4A" stroke-width="4" stroke-linecap="round" stroke-linejoin="round"/>
    <path d="M393 149L405 161L393 173" stroke="#484A4A" stroke-width="4" stroke-linecap="round" stroke-linejoin="round"/>
    <path d="M358 161H405" stroke="#484A4A" stroke-width="4" stroke-linecap="round" stroke-linejoin="round"/>
    <path d="M719 149L731 161L719 173" stroke="#484A4A" stroke-width="4" stroke-linecap="round" stroke-linejoin="round"/>
    <path d="M684 161H731" stroke="#484A4A" stroke-width="4" stroke-linecap="round" stroke-linejoin="round"/>
    <path d="M1045 149L1057 161L1045 173" stroke="#484A4A" stroke-width="4" stroke-linecap="round" stroke-linejoin="round"/>
    <path d="M1010 161H1057" stroke="#484A4A" stroke-width="4" stroke-linecap="round" stroke-linejoin="round"/>
    <path d="M1371 149L1383 161L1371 173" stroke="#484A4A" stroke-width="4" stroke-linecap="round" stroke-linejoin="round"/>
    <path d="M1336 161H1383" stroke="#484A4A" stroke-width="4" stroke-linecap="round" stroke-linejoin="round"/>
  </symbol>
</svg>